<svg xmlns="http://www.w3.org/2000/svg" xmlns:xlink="http://www.w3.org/1999/xlink" version="1.1" x="0px" y="0px" viewBox="0 0 100 100" enable-background="new 0 0 100 100" xml:space="preserve"><path d="M94.1,51c-0.1-0.5-0.5-0.3-0.5-0.3s-0.1,1.9-0.5,1.9c-0.3,0.1-32.3,2.6-38.1,3.1c0.2-0.6,0.3-1.2,0.3-1.9  c0-0.5-0.1-0.9-0.2-1.3c1.5-0.3,8.6-1.6,8.6-1.6L55,51.7c-0.7-1.7-2.4-3-4.3-3.3l-0.6-12.3l-0.7,12.3c-2,0.2-3.6,1.5-4.3,3.3  l-8.9-0.8c0,0,7.2,1.3,8.6,1.6c-0.1,0.4-0.2,0.9-0.2,1.3c0,0.7,0.1,1.3,0.3,1.9c-5.8-0.5-37.7-3-38.1-3.1c-0.4-0.1-0.5-1.9-0.5-1.9  S5.9,50.4,5.9,51c-0.1,0.5,0.5,2.4,0.5,2.4l6.8,0.8v0.4h0.4v-0.4l9,1v0.5h0.5v-0.4l11,1.2V57c-1.2,0.2-2.1,1.3-2.1,2.5  c0,1.4,1.2,2.6,2.6,2.6c1.4,0,2.6-1.2,2.6-2.6c0-1.3-0.9-2.3-2.1-2.5v-0.5l2,0.2v0.6h0.5v-0.6l2.7,0.3v3.8h0.1v1.5h-0.5v-0.9h-0.9  v2.2h0.9v-1h1.4v1H42v-2.2h-0.9v0.9h-0.5v-1.5h0.1v-3.7l5.5,0.6c0.9,0.8,2.1,1.4,3.5,1.4v2.9h0.1v0.9h-0.3v-0.6h-0.5v1.3h0.5v-0.6  h0.8v0.6h0.5v-1.3h-0.5v0.6h-0.3v-0.9h0.1v-2.9c1.3,0,2.6-0.6,3.5-1.4l5.5-0.6v3.7h0.1v1.5h-0.5v-0.9H58v2.2h0.9v-1h1.4v1h0.9v-2.2  h-0.9v0.9h-0.5v-1.5h0.1v-3.8l2.7-0.3v0.6H63v-0.6l2-0.2V57c-1.2,0.2-2.1,1.3-2.1,2.5c0,1.4,1.2,2.6,2.6,2.6c1.4,0,2.6-1.2,2.6-2.6  c0-1.3-0.9-2.3-2.1-2.5v-0.6l11-1.2v0.4h0.5v-0.5l9-1v0.4h0.4v-0.4l6.8-0.8C93.6,53.4,94.2,51.5,94.1,51z M34.5,61.3  c-1,0-1.8-0.8-1.8-1.8l0.3,0v0c0,0.8,0.7,1.5,1.5,1.5L34.5,61.3z M34.5,60.3c-0.4,0-0.8-0.3-0.8-0.8c0-0.4,0.3-0.8,0.8-0.8  c0.4,0,0.8,0.3,0.8,0.8C35.3,60,34.9,60.3,34.5,60.3z M36.3,59.5l-0.1,0l-0.1,0c0-0.8-0.7-1.5-1.5-1.5l0-0.3  C35.5,57.8,36.3,58.6,36.3,59.5z M46,52.6c0.6-0.9,0.8-1.4,0.8-1.4l1.1,0l-0.4,1.4C47.5,52.6,47.1,52.5,46,52.6z M49.9,52.6  c0,0-0.9,0-2,0c0.2-0.9,0.4-1.4,0.4-1.4l1.6,0L49.9,52.6z M50.1,52.6l0-1.4l1.6,0c0,0,0.2,0.4,0.4,1.4C51,52.5,50.1,52.6,50.1,52.6z   M52.5,52.6L52,51.2l1.1,0c0,0,0.2,0.5,0.8,1.4C52.9,52.5,52.5,52.6,52.5,52.6z M65.5,61.3c-1,0-1.8-0.8-1.8-1.8l0.3,0v0  c0,0.8,0.7,1.5,1.5,1.5L65.5,61.3z M65.5,60.3c-0.4,0-0.8-0.3-0.8-0.8c0-0.4,0.3-0.8,0.8-0.8c0.4,0,0.8,0.3,0.8,0.8  C66.2,60,65.9,60.3,65.5,60.3z M67.3,59.5l-0.1,0l-0.1,0c0-0.8-0.7-1.5-1.5-1.5l0-0.3C66.5,57.8,67.3,58.6,67.3,59.5z"></path></svg>