<svg xmlns="http://www.w3.org/2000/svg" xmlns:xlink="http://www.w3.org/1999/xlink" version="1.1" x="0px" y="0px" viewBox="0 0 125 91" enable-background="new 0 0 125 91" xml:space="preserve"><path d="M117.932,38.125c5.248,20.985-7.562,42.323-28.543,47.571c-20.986,5.248-42.325-7.553-47.571-28.533  c-2.011-8.045-1.447-16.362,1.634-24.058c0.323-0.812,0.373-1.688,0.169-2.509c-0.136-0.55-0.39-1.073-0.75-1.532l-6.303-8.025  l10.985,1.309c1.303,0.155,2.602-0.324,3.489-1.291c5.19-5.636,11.872-9.602,19.32-11.464  C91.346,4.341,112.688,17.141,117.932,38.125 M121.896,37.134C116.096,13.926,92.576-0.18,69.369,5.623  c-8.519,2.131-15.802,6.653-21.334,12.665l-20.77-2.477l12.392,15.775c-3.271,8.163-4.1,17.386-1.805,26.566  c5.8,23.205,29.318,37.313,52.528,31.51C113.588,83.859,127.699,60.338,121.896,37.134L121.896,37.134z"></path><g><path d="M75.179,40.744h3.29l0,0v-3.107h-2.865C75.368,38.588,75.219,39.639,75.179,40.744z"></path><path d="M75.604,45.113h2.865l0,0v-3.07H75.18C75.224,43.135,75.37,44.173,75.604,45.113z"></path><path d="M76,36.337h2.468l0,0V33.19C77.479,33.55,76.604,34.713,76,36.337z"></path><path d="M78.469,49.564v-3.15h-2.468C76.603,48.039,77.479,49.203,78.469,49.564z"></path><path d="M85.704,36.337c-0.872-1.133-2.029-2.036-3.363-2.599c0.509,0.711,0.941,1.591,1.275,2.599H85.704z"></path><path d="M75.897,33.738c-1.334,0.563-2.491,1.467-3.362,2.6h2.086C74.954,35.33,75.389,34.45,75.897,33.738z"></path><path d="M73.876,42.043h-3.038c0.085,1.097,0.385,2.134,0.856,3.07h2.568C74.048,44.164,73.916,43.13,73.876,42.043z"></path><path d="M72.505,46.414c0.883,1.16,2.063,2.08,3.427,2.65c-0.524-0.723-0.97-1.619-1.311-2.65H72.505z"></path><path d="M74.264,37.637h-2.552c-0.481,0.946-0.786,1.997-0.873,3.107h3.037C73.913,39.644,74.047,38.599,74.264,37.637z"></path><path d="M83.974,45.113h2.569c0.471-0.937,0.77-1.974,0.854-3.07H84.36C84.322,43.13,84.188,44.164,83.974,45.113z"></path><path d="M82.306,49.064c1.365-0.57,2.543-1.49,3.428-2.65h-2.116C83.277,47.447,82.83,48.343,82.306,49.064z"></path><path d="M79.769,33.189v3.147h2.469C81.637,34.713,80.759,33.55,79.769,33.189z"></path><path d="M94.614,22.524h-30.99c-1.438,0-2.603,1.164-2.603,2.6v43.775c0,1.436,1.165,2.6,2.603,2.6h30.99   c1.437,0,2.602-1.164,2.602-2.602V25.124C97.216,23.688,96.051,22.524,94.614,22.524z M89.197,62.756H69.041v-1.949h20.156V62.756z    M79.118,51.453c-5.564,0-10.077-4.514-10.077-10.079c0-5.564,4.513-10.076,10.077-10.076c5.565,0,10.079,4.511,10.079,10.076   C89.197,46.939,84.684,51.451,79.118,51.453z"></path><path d="M84.362,40.744h3.035c-0.087-1.11-0.392-2.161-0.871-3.107h-2.553C84.191,38.599,84.325,39.644,84.362,40.744z"></path><path d="M82.634,37.637H79.77v3.107h3.292C83.018,39.639,82.869,38.588,82.634,37.637z"></path><path d="M79.769,49.564c0.989-0.361,1.867-1.525,2.469-3.15h-2.469V49.564z"></path><path d="M82.634,45.113c0.233-0.94,0.383-1.979,0.426-3.07h-3.29v3.07H82.634z"></path></g><path d="M22.009,21.368c-3.451-2.064-7.406-2.066-10.848-0.007C4.139,25.564,0.372,37.146,1.086,52.342  c0.068,1.451,1.299,2.572,2.75,2.504c1.451-0.066,2.572-1.299,2.504-2.75c-0.331-7.066,0.36-13.33,2-18.113  c0.198-0.58,0.411-1.137,0.638-1.67v22.343h0.023v33.135c0,1.761,1.428,3.188,3.188,3.188c1.762,0,3.188-1.428,3.188-3.188V54.656  h2.345v33.156c0,1.76,1.428,3.188,3.189,3.188c1.76,0,3.188-1.428,3.188-3.188V54.656h0.021v-22.57  c0.271,0.614,0.523,1.261,0.759,1.938c1.656,4.789,2.356,11.04,2.029,18.074c-0.068,1.451,1.053,2.685,2.504,2.75  c0.043,0.003,0.083,0.005,0.125,0.005c1.397,0,2.56-1.102,2.626-2.509C32.874,37.178,29.077,25.598,22.009,21.368z M21.163,30.083  l-3.538,0v-3.538l3.538,0V30.083z"></path><path d="M10.74,11.113c0,3.673,2.978,6.651,6.651,6.651s6.651-2.978,6.651-6.651c0-1.039-0.245-2.018-0.669-2.894H11.409  C10.984,9.095,10.74,10.074,10.74,11.113z"></path><polygon points="9.546,1.29 10.682,7.219 23.96,7.219 25.096,1.29 "></polygon></svg>