<svg xmlns="http://www.w3.org/2000/svg" xmlns:xlink="http://www.w3.org/1999/xlink" version="1.1" x="0px" y="0px" viewBox="0 0 100 100" style="enable-background:new 0 0 100 100;" xml:space="preserve"><g><path d="M50.4,85.8c19.8,0,35.9-16.1,35.9-35.9S70.2,14,50.4,14S14.5,30.1,14.5,49.9S30.6,85.8,50.4,85.8z M16.5,50.4h19.9   c0.1,15.6,4,28.5,9.5,33.1C29.5,81.3,16.8,67.3,16.5,50.4z M48,16.1c0.8-0.1,1.6-0.1,2.4-0.1s1.6,0,2.4,0.1   c6,2.9,10.5,16.7,10.6,33.3h-26C37.5,32.8,42,19,48,16.1z M63.4,50.4c-0.1,16.6-4.6,30.3-10.6,33.3c-0.8,0.1-1.6,0.1-2.4,0.1   s-1.6,0-2.4-0.1c-6-2.9-10.5-16.7-10.6-33.3H63.4z M54.9,83.4c5.5-4.6,9.4-17.5,9.5-33.1h19.9C84,67.3,71.3,81.3,54.9,83.4z    M84.2,49.4H64.4c-0.1-15.6-4-28.5-9.5-33.1C71.3,18.5,84,32.4,84.2,49.4z M45.9,16.3c-5.5,4.6-9.4,17.5-9.5,33.1H16.5   C16.8,32.4,29.5,18.5,45.9,16.3z"></path></g></svg>